<svg xmlns="http://www.w3.org/2000/svg" width="80" height="80" viewBox="0 0 80 80">
  <defs>
    <linearGradient id="a" x1="50%" x2="50%" y1="0%" y2="100%">
      <stop stop-color="#B4EC51" offset="0%"/>
      <stop stop-color="#429321" offset="100%"/>
    </linearGradient>
  </defs>
  <g fill="none" fill-rule="evenodd">
    <rect width="80" height="80" fill="url(#a)" rx="5"/>
    <path fill="#FFFFFF" d="M20.89968,55.00608 L20.7528,55.00608 C20.5406389,55.6262431 20.1979224,56.0750386 19.72464,56.35248 C19.2513576,56.6299214 18.6475237,56.76864 17.91312,56.76864 C17.0971159,56.76864 16.4769621,56.6095216 16.05264,56.29128 C15.6283179,55.9730384 15.3468007,55.4916032 15.20808,54.84696 C15.0693593,54.2023168 15,53.3169656 15,52.19088 L15,44.088 L17.64384,44.088 L17.64384,50.96688 C17.64384,52.0766455 17.6723997,52.8477578 17.72952,53.28024 C17.7866403,53.7127222 17.913119,53.9901594 18.10896,54.11256 C18.304801,54.2349606 18.6475176,54.29616 19.13712,54.29616 C19.6593626,54.29616 20.0347189,54.1900811 20.2632,53.97792 C20.4916811,53.7657589 20.6385597,53.4148824 20.70384,52.92528 C20.7691203,52.4356776 20.80176,51.6604853 20.80176,50.59968 L20.80176,44.088 L23.4456,44.088 L23.4456,56.5728 L20.9976,56.5728 L20.89968,55.00608 Z M36.58344,43.656 L36.58344,37.5252 L45.75624,37.5252 L45.75624,55.9176 C44.6330344,56.2296016 43.2524482,56.4791991 41.61444,56.6664 C39.9764318,56.8536009 38.455447,56.9472 37.05144,56.9472 C34.0250249,56.9472 31.7708474,56.4948045 30.28884,55.59 C28.8068326,54.6851955 27.7772429,53.0940114 27.20004,50.8164 C26.6228371,48.5387886 26.33424,45.0912231 26.33424,40.4736 C26.33424,35.9183772 26.638437,32.4942115 27.24684,30.201 C27.855243,27.9077885 28.9394322,26.3010046 30.49944,25.3806 C32.0594478,24.4601954 34.4150242,24 37.56624,24 C38.9078467,24 40.3586322,24.0935991 41.91864,24.2808 C43.4786478,24.4680009 44.7266353,24.7019986 45.66264,24.9828 L45.66264,30.8796 C44.664235,30.7547994 43.5800459,30.6456005 42.41004,30.552 C41.2400342,30.4583995 40.358643,30.4116 39.76584,30.4116 C37.7066297,30.4116 36.3182436,30.5675984 35.60064,30.8796 C34.8830364,31.1916016 34.3994412,31.9949935 34.14984,33.2898 C33.9002388,34.5846065 33.77544,36.9791825 33.77544,40.4736 C33.77544,43.7496164 33.8456393,46.0583933 33.98604,47.4 C34.1264407,48.7416067 34.4306377,49.6385977 34.89864,50.091 C35.3666423,50.5434023 36.1622344,50.7696 37.28544,50.7696 C37.8158427,50.7696 38.3930369,50.7384003 39.01704,50.676 L39.01704,43.656 L36.58344,43.656 Z M62.46384,56.7132 C61.3718345,56.8692008 60.3578447,56.9472 59.42184,56.9472 C56.3954249,56.9472 54.1724471,56.448005 52.75284,55.4496 C51.3332329,54.451195 50.3972423,52.8288112 49.94484,50.5824 C49.4924377,48.3359888 49.26624,44.9664225 49.26624,40.4736 C49.26624,36.0119777 49.5002377,32.6580112 49.96824,30.4116 C50.4362423,28.1651888 51.3878328,26.5350051 52.82304,25.521 C54.2582472,24.5069949 56.4578252,24 59.42184,24 C60.4826453,24 61.5356348,24.0779992 62.58084,24.234 C63.6260452,24.3900008 64.445037,24.5771989 65.03784,24.7956 L65.03784,30.6924 C63.3218314,30.5051991 61.9490451,30.4116 60.91944,30.4116 C59.4842328,30.4116 58.5092426,30.6065981 57.99444,30.9966 C57.4796374,31.386602 57.1520407,32.1977938 57.01164,33.4302 C56.8712393,34.6626062 56.80104,37.0103827 56.80104,40.4736 C56.80104,43.9368173 56.8712393,46.2845938 57.01164,47.517 C57.1520407,48.7494062 57.4796374,49.5605981 57.99444,49.9506 C58.5092426,50.340602 59.4842328,50.5356 60.91944,50.5356 C62.6042484,50.5356 64.0082344,50.4420009 65.13144,50.2548 L65.13144,56.1048 C64.4450366,56.3544012 63.5558455,56.5571992 62.46384,56.7132 Z" opacity=".816"/>
  </g>
</svg>
