<svg xmlns="http://www.w3.org/2000/svg" width="80" height="80" viewBox="0 0 80 80">
  <defs>
    <linearGradient id="a" x1="50%" x2="50%" y1="0%" y2="96.747%">
      <stop stop-color="#FFFF25" offset="0%"/>
      <stop stop-color="#A39000" offset="100%"/>
    </linearGradient>
  </defs>
  <g fill="none" fill-rule="evenodd">
    <rect width="80" height="80" fill="url(#a)" rx="5"/>
    <path fill="#FFFFFF" d="M20.89968,54.63168 L20.7528,54.63168 C20.5406389,55.2518431 20.1979224,55.7006386 19.72464,55.97808 C19.2513576,56.2555214 18.6475237,56.39424 17.91312,56.39424 C17.0971159,56.39424 16.4769621,56.2351216 16.05264,55.91688 C15.6283179,55.5986384 15.3468007,55.1172032 15.20808,54.47256 C15.0693593,53.8279168 15,52.9425656 15,51.81648 L15,43.7136 L17.64384,43.7136 L17.64384,50.59248 C17.64384,51.7022455 17.6723997,52.4733578 17.72952,52.90584 C17.7866403,53.3383222 17.913119,53.6157594 18.10896,53.73816 C18.304801,53.8605606 18.6475176,53.92176 19.13712,53.92176 C19.6593626,53.92176 20.0347189,53.8156811 20.2632,53.60352 C20.4916811,53.3913589 20.6385597,53.0404824 20.70384,52.55088 C20.7691203,52.0612776 20.80176,51.2860853 20.80176,50.22528 L20.80176,43.7136 L23.4456,43.7136 L23.4456,56.1984 L20.9976,56.1984 L20.89968,54.63168 Z M39.62544,56.1984 L36.77064,45.3408 L34.38384,45.3408 L34.38384,56.1984 L26.89584,56.1984 L26.89584,24 L38.22144,24 C40.5614517,24 42.3398339,24.3899961 43.55664,25.17 C44.7734461,25.9500039 45.584638,27.0887925 45.99024,28.5864 C46.395842,30.0840075 46.59864,32.1119872 46.59864,34.6704 C46.59864,37.0416119 46.403642,38.9837924 46.01364,40.497 C45.6236381,42.0102076 44.8358459,43.1567961 43.65024,43.9368 L47.34744,56.1984 L39.62544,56.1984 Z M38.22144,38.859 C38.5646417,38.6873991 38.7986394,38.3130029 38.92344,37.7358 C39.0482406,37.1585971 39.11064,36.1524072 39.11064,34.7172 C39.11064,33.2819928 39.0560405,32.2836028 38.94684,31.722 C38.8376395,31.1603972 38.6036418,30.7938009 38.24484,30.6222 C37.8860382,30.4505991 37.2542445,30.3648 36.34944,30.3648 L34.38384,30.3648 L34.38384,39.1164 L36.34944,39.1164 C37.2542445,39.1164 37.8782383,39.0306009 38.22144,38.859 Z M50.24904,56.1984 L50.24904,24 L65.59944,24 L65.59944,30.4116 L57.73704,30.4116 L57.73704,37.5252 L64.61664,37.5252 L64.61664,43.9368 L57.73704,43.9368 L57.73704,56.1984 L50.24904,56.1984 Z" opacity=".816"/>
  </g>
</svg>
