<svg xmlns="http://www.w3.org/2000/svg" width="80" height="80" viewBox="0 0 80 80">
  <defs>
    <linearGradient id="a" x1="50%" x2="50%" y1="0%" y2="100%">
      <stop stop-color="#9F78FF" offset="0%"/>
      <stop stop-color="#5522F2" offset="100%"/>
    </linearGradient>
  </defs>
  <g fill="none" fill-rule="evenodd">
    <rect width="80" height="80" fill="url(#a)" rx="5"/>
    <path fill="#FFFFFF" d="M19.7105,55.0905 L19.5161,55.0905 C19.1272981,56.2083056 18.2201071,56.7672 16.7945,56.7672 C16.000696,56.7672 15.405352,56.6133015 15.00845,56.3055 C14.611548,55.9976985 14.3442507,55.5319531 14.20655,54.90825 C14.0688493,54.2845469 14,53.4219055 14,52.3203 L14,44.1798 L17.1347,44.1798 L17.1347,50.8866 C17.1347,51.9234052 17.1589998,52.6361981 17.2076,53.025 C17.2562002,53.4138019 17.3574492,53.6608495 17.51135,53.76615 C17.6652508,53.8714505 17.944698,53.9241 18.3497,53.9241 C18.754702,53.9241 19.0422491,53.8431008 19.21235,53.6811 C19.3824509,53.5190992 19.4917998,53.2153522 19.5404,52.76985 C19.5890002,52.3243478 19.6133,51.5751053 19.6133,50.5221 L19.6133,44.1798 L22.748,44.1798 L22.748,56.5728 L19.8077,56.5728 L19.7105,55.0905 Z M26.0186,24.3744 L35.0978,24.3744 C38.498617,24.3744 40.9243927,24.8501952 42.3752,25.8018 C43.8260073,26.7534048 44.7229983,28.2431899 45.0662,30.2712 C45.4094017,32.2992101 45.581,35.6999761 45.581,40.4736 C45.581,45.2160237 45.4094017,48.6089898 45.0662,50.6526 C44.7229983,52.6962102 43.8260073,54.1937952 42.3752,55.1454 C40.9243927,56.0970048 38.498617,56.5728 35.0978,56.5728 L26.0186,56.5728 L26.0186,24.3744 Z M35.051,50.1612 C36.1742056,50.1612 36.9151982,50.0130015 37.274,49.7166 C37.6328018,49.4201985 37.8667995,48.6792059 37.976,47.4936 C38.0852005,46.3079941 38.1398,43.9680175 38.1398,40.4736 C38.1398,37.0103827 38.0852005,34.678206 37.976,33.477 C37.8667995,32.275794 37.6250019,31.5270015 37.2506,31.2306 C36.8761981,30.9341985 36.1430055,30.786 35.051,30.786 L33.4598,30.786 L33.4598,50.1612 L35.051,50.1612 Z M53.069,56.7132 C51.5089922,56.5571992 50.1518058,56.3544012 48.9974,56.1048 L48.9974,50.208 C51.8366142,50.4264011 54.0049925,50.5356 55.5026,50.5356 C56.5322051,50.5356 57.2965975,50.4966004 57.7958,50.4186 C58.2950025,50.3405996 58.6537989,50.1612014 58.8722,49.8804 C59.0906011,49.6619989 59.2309997,49.3656019 59.2934,48.9912 C59.3558003,48.6167981 59.387,48.0708036 59.387,47.3532 C59.387,46.3235949 59.3324005,45.5904022 59.2232,45.1536 C59.1139995,44.7167978 58.8722019,44.397001 58.4978,44.1942 C58.1233981,43.991399 57.4838045,43.8120008 56.579,43.656 L52.5074,42.9072 C50.9473922,42.6575988 49.871003,41.7762076 49.2782,40.263 C48.685397,38.7497924 48.389,36.6204137 48.389,33.8748 C48.389,31.1291863 48.7945959,29.0388072 49.6058,27.6036 C50.4170041,26.1683928 51.5089931,25.2090024 52.8818,24.7254 C54.2546069,24.2417976 56.0017894,24 58.1234,24 C60.4946119,24 63.0217866,24.2807972 65.705,24.8424 L65.705,30.7392 C64.113792,30.5207989 62.2106111,30.4116 59.9954,30.4116 C58.9345947,30.4116 58.1546025,30.4427997 57.6554,30.5052 C57.1561975,30.5676003 56.7818012,30.7079989 56.5322,30.9264 C56.2825988,31.1136009 56.1110005,31.409998 56.0174,31.8156 C55.9237995,32.221202 55.877,32.8139961 55.877,33.594 C55.877,34.4364042 55.9159996,35.0447981 55.994,35.4192 C56.0720004,35.7936019 56.2435987,36.0665991 56.5088,36.2382 C56.7740013,36.4098009 57.2185969,36.5579994 57.8426,36.6828 L61.6802,37.3848 C62.7410053,37.6032011 63.6379963,37.9385977 64.3712,38.391 C65.1044037,38.8434023 65.6893978,39.6467942 66.1262,40.8012 C66.6254025,42.1116066 66.875,43.9367883 66.875,46.2768 C66.875,49.3656154 66.4928038,51.6821923 65.7284,53.2266 C64.9639962,54.7710077 63.9422064,55.7771977 62.663,56.2452 C61.3837936,56.7132023 59.6990105,56.9472 57.6086,56.9472 C56.1421927,56.9472 54.6290078,56.8692008 53.069,56.7132 Z" opacity=".816"/>
  </g>
</svg>
