<svg xmlns="http://www.w3.org/2000/svg" width="80" height="80" viewBox="0 0 80 80">
  <defs>
    <linearGradient id="a" x1="50%" x2="50%" y1="0%" y2="100%">
      <stop stop-color="#47C7FA" offset="0%"/>
      <stop stop-color="#2295F2" offset="100%"/>
    </linearGradient>
  </defs>
  <g fill="none" fill-rule="evenodd">
    <rect width="80" height="80" fill="url(#a)" rx="5"/>
    <path fill="#FFFFFF" d="M13.8563,54.6432 L13.7105,54.6432 C13.4998989,55.2588031 13.1597023,55.7042986 12.6899,55.9797 C12.2200977,56.2551014 11.6207036,56.3928 10.8917,56.3928 C10.081696,56.3928 9.46610211,56.2348516 9.0449,55.91895 C8.62369789,55.6030484 8.34425069,55.1251532 8.20655,54.48525 C8.06884931,53.8453468 8,52.9665056 8,51.8487 L8,43.8054 L10.6244,43.8054 L10.6244,50.6337 C10.6244,51.7353055 10.6527497,52.5007479 10.70945,52.93005 C10.7661503,53.3593521 10.891699,53.6347494 11.0861,53.75625 C11.280501,53.8777506 11.6206976,53.9385 12.1067,53.9385 C12.6251026,53.9385 12.9976989,53.8332011 13.2245,53.6226 C13.4513011,53.4119989 13.5970997,53.0637024 13.6619,52.5777 C13.7267003,52.0916976 13.7591,51.3222053 13.7591,50.2692 L13.7591,43.8054 L16.3835,43.8054 L16.3835,56.1984 L13.9535,56.1984 L13.8563,54.6432 Z M41.7734,56.1984 L41.7734,33.4068 L41.399,33.4068 L37.6082,56.1984 L30.9626,56.1984 L27.2186,33.4068 L26.8442,33.4068 L26.8442,56.1984 L19.7774,56.1984 L19.7774,24 L31.0094,24 L34.2854,44.8728 L34.6598,44.8728 L37.9358,24 L48.9338,24 L48.9338,56.1984 L41.7734,56.1984 Z M53.2394,24 L64.331,24 C66.6710117,24 68.441594,24.4055959 69.6428,25.2168 C70.844006,26.0280041 71.6551979,27.2135922 72.0764,28.7736 C72.4976021,30.3336078 72.7082,32.4551866 72.7082,35.1384 C72.7082,37.6656126 72.5132019,39.7091922 72.1232,41.2692 C71.733198,42.8292078 70.937606,44.0537956 69.7364,44.943 C68.535194,45.8322044 66.733412,46.2768 64.331,46.2768 L60.7274,46.2768 L60.7274,56.1984 L53.2394,56.1984 L53.2394,24 Z M62.4122,39.912 C63.3170045,39.912 63.9409983,39.8184009 64.2842,39.6312 C64.6274017,39.4439991 64.8613994,39.0384031 64.9862,38.4144 C65.1110006,37.7903969 65.1734,36.6984078 65.1734,35.1384 C65.1734,33.5783922 65.1188005,32.4864031 65.0096,31.8624 C64.9003995,31.2383969 64.6664018,30.8328009 64.3076,30.6456 C63.9487982,30.4583991 63.3326044,30.3648 62.459,30.3648 L60.7274,30.3648 L60.7274,39.912 L62.4122,39.912 Z" opacity=".816"/>
  </g>
</svg>
