<svg xmlns="http://www.w3.org/2000/svg" width="80" height="80" viewBox="0 0 80 80">
  <defs>
    <linearGradient id="a" x1="50%" x2="50%" y1="0%" y2="100%">
      <stop stop-color="#FFA244" offset="0%"/>
      <stop stop-color="#F05700" offset="100%"/>
    </linearGradient>
  </defs>
  <g fill="none" fill-rule="evenodd">
    <rect width="80" height="80" fill="url(#a)" rx="5"/>
    <path fill="#FFFFFF" d="M22.1722,54.9204 L22.0264,54.9204 C21.8157989,55.5360031 21.4756023,55.9976985 21.0058,56.3055 C20.5359977,56.6133015 19.896104,56.7672 19.0861,56.7672 C18.2112956,56.7672 17.5552022,56.6052016 17.1178,56.2812 C16.6803978,55.9571984 16.3847508,55.4712032 16.23085,54.8232 C16.0769492,54.1751968 16,53.2599059 16,52.0773 L16,44.1798 L18.1627,44.1798 L18.1627,51.2754 C18.1627,52.3932056 18.2072496,53.1910476 18.29635,53.66895 C18.3854504,54.1468524 18.5514988,54.4586993 18.7945,54.6045 C19.0375012,54.7503007 19.4424972,54.8232 20.0095,54.8232 C20.6575032,54.8232 21.1232486,54.6774015 21.40675,54.3858 C21.6902514,54.0941985 21.8684496,53.6770527 21.94135,53.13435 C22.0142504,52.5916473 22.0507,51.7614056 22.0507,50.6436 L22.0507,44.1798 L24.2134,44.1798 L24.2134,56.5728 L22.2694,56.5728 L22.1722,54.9204 Z M31.5196,56.7132 C29.9595922,56.5571992 28.6024058,56.3544012 27.448,56.1048 L27.448,50.208 C30.2872142,50.4264011 32.4555925,50.5356 33.9532,50.5356 C34.9828051,50.5356 35.7471975,50.4966004 36.2464,50.4186 C36.7456025,50.3405996 37.1043989,50.1612014 37.3228,49.8804 C37.5412011,49.6619989 37.6815997,49.3656019 37.744,48.9912 C37.8064003,48.6167981 37.8376,48.0708036 37.8376,47.3532 C37.8376,46.3235949 37.7830005,45.5904022 37.6738,45.1536 C37.5645995,44.7167978 37.3228019,44.397001 36.9484,44.1942 C36.5739981,43.991399 35.9344045,43.8120008 35.0296,43.656 L30.958,42.9072 C29.3979922,42.6575988 28.321603,41.7762076 27.7288,40.263 C27.135997,38.7497924 26.8396,36.6204137 26.8396,33.8748 C26.8396,31.1291863 27.2451959,29.0388072 28.0564,27.6036 C28.8676041,26.1683928 29.9595931,25.2090024 31.3324,24.7254 C32.7052069,24.2417976 34.4523894,24 36.574,24 C38.9452119,24 41.4723866,24.2807972 44.1556,24.8424 L44.1556,30.7392 C42.564392,30.5207989 40.6612111,30.4116 38.446,30.4116 C37.3851947,30.4116 36.6052025,30.4427997 36.106,30.5052 C35.6067975,30.5676003 35.2324012,30.7079989 34.9828,30.9264 C34.7331988,31.1136009 34.5616005,31.409998 34.468,31.8156 C34.3743995,32.221202 34.3276,32.8139961 34.3276,33.594 C34.3276,34.4364042 34.3665996,35.0447981 34.4446,35.4192 C34.5226004,35.7936019 34.6941987,36.0665991 34.9594,36.2382 C35.2246013,36.4098009 35.6691969,36.5579994 36.2932,36.6828 L40.1308,37.3848 C41.1916053,37.6032011 42.0885963,37.9385977 42.8218,38.391 C43.5550037,38.8434023 44.1399978,39.6467942 44.5768,40.8012 C45.0760025,42.1116066 45.3256,43.9367883 45.3256,46.2768 C45.3256,49.3656154 44.9434038,51.6821923 44.179,53.2266 C43.4145962,54.7710077 42.3928064,55.7771977 41.1136,56.2452 C39.8343936,56.7132023 38.1496105,56.9472 36.0592,56.9472 C34.5927927,56.9472 33.0796078,56.8692008 31.5196,56.7132 Z M48.6484,56.5728 L48.6484,24.3744 L56.1364,24.3744 L56.1364,49.974 L63.7648,49.974 L63.7648,56.5728 L48.6484,56.5728 Z" opacity=".816"/>
  </g>
</svg>
