<svg xmlns="http://www.w3.org/2000/svg" width="80" height="80" viewBox="0 0 80 80">
  <defs>
    <linearGradient id="a" x1="50%" x2="50%" y1="0%" y2="100%">
      <stop stop-color="#B4EC51" offset="0%"/>
      <stop stop-color="#429321" offset="100%"/>
    </linearGradient>
    <linearGradient id="b" x1="50%" x2="50%" y1="0%" y2="100%">
      <stop stop-color="#FFA244" offset="0%"/>
      <stop stop-color="#F05700" offset="100%"/>
    </linearGradient>
    <linearGradient id="c" x1="50%" x2="50%" y1="0%" y2="100%">
      <stop stop-color="#47C7FA" offset="0%"/>
      <stop stop-color="#2295F2" offset="100%"/>
    </linearGradient>
    <linearGradient id="d" x1="50%" x2="50%" y1="0%" y2="100%">
      <stop stop-color="#9F78FF" offset="0%"/>
      <stop stop-color="#5522F2" offset="100%"/>
    </linearGradient>
    <linearGradient id="e" x1="50%" x2="50%" y1="0%" y2="96.747%">
      <stop stop-color="#FFFF25" offset="0%"/>
      <stop stop-color="#A39000" offset="100%"/>
    </linearGradient>
  </defs>
  <g fill="none" fill-rule="evenodd">
    <g transform="translate(9 16)">
      <rect width="16" height="16" fill="url(#a)" rx="1"/>
      <path fill="#FFFFFF" d="M4.179936,11.001216 L4.15056,11.001216 C4.10812779,11.1252486 4.03958447,11.2150077 3.944928,11.270496 C3.85027153,11.3259843 3.72950473,11.353728 3.582624,11.353728 C3.41942318,11.353728 3.29539242,11.3219043 3.210528,11.258256 C3.12566358,11.1946077 3.06936014,11.0983206 3.041616,10.969392 C3.01387186,10.8404634 3,10.6633931 3,10.438176 L3,8.8176 L3.528768,8.8176 L3.528768,10.193376 C3.528768,10.4153291 3.53447994,10.5695516 3.545904,10.656048 C3.55732806,10.7425444 3.5826238,10.7980319 3.621792,10.822512 C3.6609602,10.8469921 3.72950351,10.859232 3.827424,10.859232 C3.93187252,10.859232 4.00694377,10.8380162 4.05264,10.795584 C4.09833623,10.7531518 4.12771193,10.6829765 4.140768,10.585056 C4.15382407,10.4871355 4.160352,10.3320971 4.160352,10.119936 L4.160352,8.8176 L4.68912,8.8176 L4.68912,11.31456 L4.19952,11.31456 L4.179936,11.001216 Z M7.316688,8.7312 L7.316688,7.50504 L9.151248,7.50504 L9.151248,11.18352 C8.92660688,11.2459203 8.65048964,11.2958398 8.322888,11.33328 C7.99528636,11.3707202 7.6910894,11.38944 7.410288,11.38944 C6.80500497,11.38944 6.35416948,11.2989609 6.057768,11.118 C5.76136652,10.9370391 5.55544858,10.6188023 5.440008,10.16328 C5.32456742,9.70775772 5.266848,9.01824462 5.266848,8.09472 C5.266848,7.18367544 5.32768739,6.49884229 5.449368,6.0402 C5.57104861,5.58155771 5.78788644,5.26020092 6.099888,5.07612 C6.41188956,4.89203908 6.88300485,4.8 7.513248,4.8 C7.78156934,4.8 8.07172644,4.81871981 8.383728,4.85616 C8.69572956,4.89360019 8.94532706,4.94039972 9.132528,4.99656 L9.132528,6.17592 C8.932847,6.15095988 8.71600917,6.12912009 8.482008,6.1104 C8.24800683,6.09167991 8.07172859,6.08232 7.953168,6.08232 C7.54132594,6.08232 7.26364872,6.11351969 7.120128,6.17592 C6.97660728,6.23832031 6.87988825,6.39899871 6.829968,6.65796 C6.78004775,6.91692129 6.755088,7.39583651 6.755088,8.09472 C6.755088,8.74992328 6.76912786,9.21167866 6.797208,9.48 C6.82528814,9.74832134 6.88612753,9.92771955 6.979728,10.0182 C7.07332847,10.1086805 7.23244688,10.15392 7.457088,10.15392 C7.56316853,10.15392 7.67860738,10.1476801 7.803408,10.1352 L7.803408,8.7312 L7.316688,8.7312 Z M12.492768,11.34264 C12.2743669,11.3738402 12.0715689,11.38944 11.884368,11.38944 C11.279085,11.38944 10.8344894,11.289601 10.550568,11.08992 C10.2666466,10.890239 10.0794485,10.5657622 9.988968,10.11648 C9.89848755,9.66719775 9.853248,8.99328449 9.853248,8.09472 C9.853248,7.20239554 9.90004753,6.53160225 9.993648,6.08232 C10.0872485,5.63303775 10.2775666,5.30700101 10.564608,5.1042 C10.8516494,4.90139899 11.291565,4.8 11.884368,4.8 C12.0965291,4.8 12.307127,4.81559984 12.516168,4.8468 C12.725209,4.87800016 12.8890074,4.91543978 13.007568,4.95912 L13.007568,6.13848 C12.6643663,6.10103981 12.389809,6.08232 12.183888,6.08232 C11.8968466,6.08232 11.7018485,6.12131961 11.598888,6.19932 C11.4959275,6.27732039 11.4304081,6.43955877 11.402328,6.68604 C11.3742479,6.93252123 11.360208,7.40207654 11.360208,8.09472 C11.360208,8.78736346 11.3742479,9.25691877 11.402328,9.5034 C11.4304081,9.74988123 11.4959275,9.91211961 11.598888,9.99012 C11.7018485,10.0681204 11.8968466,10.10712 12.183888,10.10712 C12.5208497,10.10712 12.8016469,10.0884002 13.026288,10.05096 L13.026288,11.22096 C12.8890073,11.2708802 12.7111691,11.3114398 12.492768,11.34264 Z" opacity=".816"/>
    </g>
    <g transform="translate(59 11)">
      <rect width="16" height="16" fill="url(#b)" rx="1"/>
      <path fill="#FFFFFF" d="M4.43444,10.98408 L4.40528,10.98408 C4.36315979,11.1072006 4.29512047,11.1995397 4.20116,11.2611 C4.10719953,11.3226603 3.97922081,11.35344 3.81722,11.35344 C3.64225913,11.35344 3.51104044,11.3210403 3.42356,11.25624 C3.33607956,11.1914397 3.27695015,11.0942406 3.24617,10.96464 C3.21538985,10.8350394 3.2,10.6519812 3.2,10.41546 L3.2,8.83596 L3.63254,8.83596 L3.63254,10.25508 C3.63254,10.4786411 3.64144991,10.6382095 3.65927,10.73379 C3.67709009,10.8293705 3.71029976,10.8917399 3.7589,10.9209 C3.80750024,10.9500601 3.88849943,10.96464 4.0019,10.96464 C4.13150065,10.96464 4.22464972,10.9354803 4.28135,10.87716 C4.33805028,10.8188397 4.37368993,10.7354105 4.38827,10.62687 C4.40285007,10.5183295 4.41014,10.3522811 4.41014,10.12872 L4.41014,8.83596 L4.84268,8.83596 L4.84268,11.31456 L4.45388,11.31456 L4.43444,10.98408 Z M6.30392,11.34264 C5.99191844,11.3114398 5.72048115,11.2708802 5.4896,11.22096 L5.4896,10.0416 C6.05744284,10.0852802 6.4911185,10.10712 6.79064,10.10712 C6.99656103,10.10712 7.1494395,10.0993201 7.24928,10.08372 C7.3491205,10.0681199 7.42087978,10.0322403 7.46456,9.97608 C7.50824022,9.93239978 7.53631994,9.87312037 7.5488,9.79824 C7.56128006,9.72335963 7.56752,9.61416072 7.56752,9.47064 C7.56752,9.26471897 7.55660011,9.11808044 7.53476,9.03072 C7.51291989,8.94335956 7.46456037,8.8794002 7.38968,8.83884 C7.31479963,8.7982798 7.1868809,8.76240016 7.00592,8.7312 L6.1916,8.58144 C5.87959844,8.53151975 5.66432059,8.35524151 5.54576,8.0526 C5.42719941,7.74995849 5.36792,7.32408275 5.36792,6.77496 C5.36792,6.22583725 5.44903919,5.80776144 5.61128,5.52072 C5.77352081,5.23367856 5.99191863,5.04180048 6.26648,4.94508 C6.54104137,4.84835952 6.89047788,4.8 7.3148,4.8 C7.78904237,4.8 8.29447732,4.85615944 8.83112,4.96848 L8.83112,6.14784 C8.51287841,6.10415978 8.13224222,6.08232 7.6892,6.08232 C7.47703894,6.08232 7.3210405,6.08855994 7.2212,6.10104 C7.1213595,6.11352006 7.04648025,6.14159978 6.99656,6.18528 C6.94663975,6.22272019 6.91232009,6.28199959 6.8936,6.36312 C6.87487991,6.44424041 6.86552,6.56279922 6.86552,6.7188 C6.86552,6.88728084 6.87331992,7.00895963 6.88892,7.08384 C6.90452008,7.15872037 6.93883973,7.21331983 6.99188,7.24764 C7.04492027,7.28196017 7.13383938,7.31159988 7.25864,7.33656 L8.02616,7.47696 C8.23832106,7.52064022 8.41771927,7.58771955 8.56436,7.6782 C8.71100073,7.76868045 8.82799956,7.92935885 8.91536,8.16024 C9.0152005,8.42232131 9.06512,8.78735766 9.06512,9.25536 C9.06512,9.87312309 8.98868076,10.3364385 8.8358,10.64532 C8.68291924,10.9542015 8.47856128,11.1554395 8.22272,11.24904 C7.96687872,11.3426405 7.62992209,11.38944 7.21184,11.38944 C6.91855853,11.38944 6.61592156,11.3738402 6.30392,11.34264 Z M9.72968,11.31456 L9.72968,4.87488 L11.22728,4.87488 L11.22728,9.9948 L12.75296,9.9948 L12.75296,11.31456 L9.72968,11.31456 Z" opacity=".816"/>
    </g>
    <g transform="translate(17 53)">
      <rect width="16" height="16" fill="url(#c)" rx="1"/>
      <path fill="#FFFFFF" d="M2.77126,10.92864 L2.7421,10.92864 C2.69997979,11.0517606 2.63194047,11.1408597 2.53798,11.19594 C2.44401953,11.2510203 2.32414073,11.27856 2.17834,11.27856 C2.01633919,11.27856 1.89322042,11.2469703 1.80898,11.18379 C1.72473958,11.1206097 1.66885014,11.0250306 1.64131,10.89705 C1.61376986,10.7690694 1.6,10.5933011 1.6,10.36974 L1.6,8.76108 L2.12488,8.76108 L2.12488,10.12674 C2.12488,10.3470611 2.13054994,10.5001496 2.14189,10.58601 C2.15323006,10.6718704 2.17833981,10.7269499 2.21722,10.75125 C2.25610019,10.7755501 2.32413951,10.7877 2.42134,10.7877 C2.52502052,10.7877 2.59953977,10.7666402 2.6449,10.72452 C2.69026023,10.6823998 2.71941994,10.6127405 2.73238,10.51554 C2.74534006,10.4183395 2.75182,10.2644411 2.75182,10.05384 L2.75182,8.76108 L3.2767,8.76108 L3.2767,11.23968 L2.7907,11.23968 L2.77126,10.92864 Z M8.35468,11.23968 L8.35468,6.68136 L8.2798,6.68136 L7.52164,11.23968 L6.19252,11.23968 L5.44372,6.68136 L5.36884,6.68136 L5.36884,11.23968 L3.95548,11.23968 L3.95548,4.8 L6.20188,4.8 L6.85708,8.97456 L6.93196,8.97456 L7.58716,4.8 L9.78676,4.8 L9.78676,11.23968 L8.35468,11.23968 Z M10.64788,4.8 L12.8662,4.8 C13.3342023,4.8 13.6883188,4.88111919 13.92856,5.04336 C14.1688012,5.20560081 14.3310396,5.44271844 14.41528,5.75472 C14.4995204,6.06672156 14.54164,6.49103732 14.54164,7.02768 C14.54164,7.53312253 14.5026404,7.94183844 14.42464,8.25384 C14.3466396,8.56584156 14.1875212,8.81075911 13.94728,8.9886 C13.7070388,9.16644089 13.3466824,9.25536 12.8662,9.25536 L12.14548,9.25536 L12.14548,11.23968 L10.64788,11.23968 L10.64788,4.8 Z M12.48244,7.9824 C12.6634009,7.9824 12.7881997,7.96368019 12.85684,7.92624 C12.9254803,7.88879981 12.9722799,7.80768062 12.99724,7.68288 C13.0222001,7.55807938 13.03468,7.33968156 13.03468,7.02768 C13.03468,6.71567844 13.0237601,6.49728062 13.00192,6.37248 C12.9800799,6.24767938 12.9332804,6.16656019 12.86152,6.12912 C12.7897596,6.09167981 12.6665209,6.07296 12.4918,6.07296 L12.14548,6.07296 L12.14548,7.9824 L12.48244,7.9824 Z" opacity=".816"/>
    </g>
    <g transform="translate(57 48)">
      <rect width="16" height="16" fill="url(#d)" rx="1"/>
      <path fill="#FFFFFF" d="M3.9421,11.0181 L3.90322,11.0181 C3.82545961,11.2416611 3.64402143,11.35344 3.3589,11.35344 C3.20013921,11.35344 3.0810704,11.3226603 3.00169,11.2611 C2.9223096,11.1995397 2.86885014,11.1063906 2.84131,10.98165 C2.81376986,10.8569094 2.8,10.6843811 2.8,10.46406 L2.8,8.83596 L3.42694,8.83596 L3.42694,10.17732 C3.42694,10.384681 3.43179995,10.5272396 3.44152,10.605 C3.45124005,10.6827604 3.47148985,10.7321699 3.50227,10.75323 C3.53305015,10.7742901 3.5889396,10.78482 3.66994,10.78482 C3.7509404,10.78482 3.80844983,10.7686202 3.84247,10.73622 C3.87649017,10.7038198 3.89835995,10.6430704 3.90808,10.55397 C3.91780005,10.4648696 3.92266,10.3150211 3.92266,10.10442 L3.92266,8.83596 L4.5496,8.83596 L4.5496,11.31456 L3.96154,11.31456 L3.9421,11.0181 Z M5.20372,4.87488 L7.01956,4.87488 C7.6997234,4.87488 8.18487855,4.97003905 8.47504,5.16036 C8.76520145,5.35068095 8.94459966,5.64863797 9.01324,6.05424 C9.08188034,6.45984203 9.1162,7.13999523 9.1162,8.09472 C9.1162,9.04320474 9.08188034,9.72179796 9.01324,10.13052 C8.94459966,10.539242 8.76520145,10.838759 8.47504,11.02908 C8.18487855,11.219401 7.6997234,11.31456 7.01956,11.31456 L5.20372,11.31456 L5.20372,4.87488 Z M7.0102,10.03224 C7.23484112,10.03224 7.38303964,10.0026003 7.4548,9.94332 C7.52656036,9.8840397 7.57335989,9.73584119 7.5952,9.49872 C7.61704011,9.26159881 7.62796,8.79360349 7.62796,8.09472 C7.62796,7.40207654 7.61704011,6.9356412 7.5952,6.6954 C7.57335989,6.4551588 7.52500037,6.3054003 7.45012,6.24612 C7.37523963,6.1868397 7.22860109,6.1572 7.0102,6.1572 L6.69196,6.1572 L6.69196,10.03224 L7.0102,10.03224 Z M10.6138,11.34264 C10.3017984,11.3114398 10.0303612,11.2708802 9.79948,11.22096 L9.79948,10.0416 C10.3673228,10.0852802 10.8009985,10.10712 11.10052,10.10712 C11.306441,10.10712 11.4593195,10.0993201 11.55916,10.08372 C11.6590005,10.0681199 11.7307598,10.0322403 11.77444,9.97608 C11.8181202,9.93239978 11.8461999,9.87312037 11.85868,9.79824 C11.8711601,9.72335963 11.8774,9.61416072 11.8774,9.47064 C11.8774,9.26471897 11.8664801,9.11808044 11.84464,9.03072 C11.8227999,8.94335956 11.7744404,8.8794002 11.69956,8.83884 C11.6246796,8.7982798 11.4967609,8.76240016 11.3158,8.7312 L10.50148,8.58144 C10.1894784,8.53151975 9.97420059,8.35524151 9.85564,8.0526 C9.73707941,7.74995849 9.6778,7.32408275 9.6778,6.77496 C9.6778,6.22583725 9.75891919,5.80776144 9.92116,5.52072 C10.0834008,5.23367856 10.3017986,5.04180048 10.57636,4.94508 C10.8509214,4.84835952 11.2003579,4.8 11.62468,4.8 C12.0989224,4.8 12.6043573,4.85615944 13.141,4.96848 L13.141,6.14784 C12.8227584,6.10415978 12.4421222,6.08232 11.99908,6.08232 C11.7869189,6.08232 11.6309205,6.08855994 11.53108,6.10104 C11.4312395,6.11352006 11.3563602,6.14159978 11.30644,6.18528 C11.2565198,6.22272019 11.2222001,6.28199959 11.20348,6.36312 C11.1847599,6.44424041 11.1754,6.56279922 11.1754,6.7188 C11.1754,6.88728084 11.1831999,7.00895963 11.1988,7.08384 C11.2144001,7.15872037 11.2487197,7.21331983 11.30176,7.24764 C11.3548003,7.28196017 11.4437194,7.31159988 11.56852,7.33656 L12.33604,7.47696 C12.5482011,7.52064022 12.7275993,7.58771955 12.87424,7.6782 C13.0208807,7.76868045 13.1378796,7.92935885 13.22524,8.16024 C13.3250805,8.42232131 13.375,8.78735766 13.375,9.25536 C13.375,9.87312309 13.2985608,10.3364385 13.14568,10.64532 C12.9927992,10.9542015 12.7884413,11.1554395 12.5326,11.24904 C12.2767587,11.3426405 11.9398021,11.38944 11.52172,11.38944 C11.2284385,11.38944 10.9258016,11.3738402 10.6138,11.34264 Z" opacity=".816"/>
    </g>
    <g transform="translate(34 30)">
      <rect width="16" height="16" fill="url(#e)" rx="1"/>
      <path fill="#FFFFFF" d="M4.179936,10.926336 L4.15056,10.926336 C4.10812779,11.0503686 4.03958447,11.1401277 3.944928,11.195616 C3.85027153,11.2511043 3.72950473,11.278848 3.582624,11.278848 C3.41942318,11.278848 3.29539242,11.2470243 3.210528,11.183376 C3.12566358,11.1197277 3.06936014,11.0234406 3.041616,10.894512 C3.01387186,10.7655834 3,10.5885131 3,10.363296 L3,8.74272 L3.528768,8.74272 L3.528768,10.118496 C3.528768,10.3404491 3.53447994,10.4946716 3.545904,10.581168 C3.55732806,10.6676644 3.5826238,10.7231519 3.621792,10.747632 C3.6609602,10.7721121 3.72950351,10.784352 3.827424,10.784352 C3.93187252,10.784352 4.00694377,10.7631362 4.05264,10.720704 C4.09833623,10.6782718 4.12771193,10.6080965 4.140768,10.510176 C4.15382407,10.4122555 4.160352,10.2572171 4.160352,10.045056 L4.160352,8.74272 L4.68912,8.74272 L4.68912,11.23968 L4.19952,11.23968 L4.179936,10.926336 Z M7.925088,11.23968 L7.354128,9.06816 L6.876768,9.06816 L6.876768,11.23968 L5.379168,11.23968 L5.379168,4.8 L7.644288,4.8 C8.11229034,4.8 8.46796678,4.87799922 8.711328,5.034 C8.95468922,5.19000078 9.11692759,5.4177585 9.198048,5.71728 C9.27916841,6.0168015 9.319728,6.42239744 9.319728,6.93408 C9.319728,7.40832237 9.28072839,7.79675849 9.202728,8.0994 C9.12472761,8.40204151 8.96716919,8.63135922 8.730048,8.78736 L9.469488,11.23968 L7.925088,11.23968 Z M7.644288,7.7718 C7.71292834,7.73747983 7.75972788,7.66260058 7.784688,7.54716 C7.80964812,7.43171942 7.822128,7.23048144 7.822128,6.94344 C7.822128,6.65639856 7.81120811,6.45672056 7.789368,6.3444 C7.76752789,6.23207944 7.72072836,6.15876017 7.648968,6.12444 C7.57720764,6.09011983 7.4508489,6.07296 7.269888,6.07296 L6.876768,6.07296 L6.876768,7.82328 L7.269888,7.82328 C7.4508489,7.82328 7.57564766,7.80612017 7.644288,7.7718 Z M10.049808,11.23968 L10.049808,4.8 L13.119888,4.8 L13.119888,6.08232 L11.547408,6.08232 L11.547408,7.50504 L12.923328,7.50504 L12.923328,8.78736 L11.547408,8.78736 L11.547408,11.23968 L10.049808,11.23968 Z" opacity=".816"/>
    </g>
  </g>
</svg>
