<svg xmlns="http://www.w3.org/2000/svg" width="60" height="60" viewBox="0 0 60 60">
    <g fill="none" fill-rule="evenodd" transform="translate(14 12)">
        <path fill="#9AA8B3" fill-rule="nonzero" d="M30 24a2 2 0 0 1-2 2h-.944c.593-1.662.944-3.519.944-5.5 0-1.593-.234-3.102-.628-4.5H28a2 2 0 0 1 2 2v6zm-5.127 2H24a2 2 0 0 1-2-2v-6a2 2 0 0 1 2-2h1.258c.465 1.386.742 2.897.742 4.5 0 2-.422 3.863-1.127 5.5zM4.629 16A16.526 16.526 0 0 0 4 20.5c0 1.981.352 3.838.944 5.5H4a2 2 0 0 1-2-2v-6a2 2 0 0 1 2-2h.629zm2.113 0H8a2 2 0 0 1 2 2v6a2 2 0 0 1-2 2h-.873A13.893 13.893 0 0 1 6 20.5c0-1.603.277-3.114.742-4.5zm23.196-1.479c.028-.338.062-.675.062-1.021C30 6.044 23.732 0 16 0S2 6.044 2 13.5c0 .346.034.683.063 1.021C.838 15.205 0 16.498 0 18v6a4 4 0 0 0 4 4s4.004.006 4 0c2.125-.095 4-1.852 4-4v-6a4 4 0 0 0-4-4H4C4 7.337 9.373 2 16 2c6.628 0 12 4.867 12 12h-4a4 4 0 0 0-4 4v6c0 2.148 1.875 3.905 4 4-.004.006 2 0 2 0v3a1 1 0 1 0 2 0v-3a4 4 0 0 0 4-4v-6c0-1.502-.838-2.795-2.062-3.479z"/>
        <rect width="8" height="4" x="20" y="31" stroke="#9AA8B3" stroke-width="2" rx="2"/>
    </g>
</svg>
