<svg xmlns="http://www.w3.org/2000/svg" width="60" height="60" viewBox="0 0 60 60">
    <g fill="#9AA8B3" fill-rule="nonzero">
        <path d="M43.681 35.866c-.874-1.902-4.002-4.542-7.024-7.094-1.685-1.422-3.278-2.766-4.293-3.826a.9.9 0 0 0-.971-.226c-.626.236-1.012.418-1.316.56-.464.216-.62.29-1.246.356a.922.922 0 0 0-.68.424c-1.311 2.048-2.67 1.873-3.578 1.556-.29-.101-.341-.23-.37-.355-.194-.85.784-2.83 2.052-4.153 3.016-3.15 4.572-3.939 7.857-2.406a105.813 105.813 0 0 0 7.5 3.115c.488.176 1.013-.091 1.182-.597.167-.505-.087-1.058-.572-1.234a103.225 103.225 0 0 1-7.35-3.055c-4.257-1.985-6.592-.678-9.928 2.805-1.27 1.325-2.994 4.006-2.548 5.973.19.837.755 1.456 1.594 1.745 2.103.725 4.023.031 5.452-1.949.59-.095.911-.234 1.394-.46.174-.082.379-.177.65-.291 1.061 1.04 2.494 2.25 4.004 3.523 2.728 2.304 5.823 4.915 6.519 6.426.343.746-.026 1.232-.277 1.455-.367.33-.87.434-1.143.234a.897.897 0 0 0-1.003-.035.981.981 0 0 0-.447.936c.063.616-.477.969-.711 1.09-.594.315-1.214.26-1.446.036a.907.907 0 0 0-.963-.198.963.963 0 0 0-.594.816 1.83 1.83 0 0 1-1.096 1.483c-.284.113-.696.18-1.065-.172a.911.911 0 0 0-.848-.225.942.942 0 0 0-.652.61c-.035.097-.115.33-.984.33-.618 0-1.73-.436-2.274-.812-.651-.447-4.737-3.628-8.266-6.712-.495-.436-1.353-1.37-2.11-2.195-.672-.732-1.287-1.397-1.602-1.676a.897.897 0 0 0-1.309.115 1 1 0 0 0 .11 1.365c.288.254.844.868 1.459 1.536.828.903 1.683 1.837 2.259 2.34 3.456 3.02 7.61 6.281 8.438 6.849C28.17 44.34 29.641 45 30.78 45c.915 0 1.619-.219 2.107-.647.653.265 1.396.267 2.11-.023.845-.341 1.54-1.029 1.933-1.862.731.163 1.569.049 2.33-.35.744-.392 1.282-.99 1.55-1.69.738.041 1.5-.232 2.129-.796 1.065-.951 1.359-2.431.742-3.766z"/>
        <path d="M26.09 20h-8.18c-.503 0-.91.448-.91 1s.407 1 .91 1h8.18c.503 0 .91-.448.91-1s-.407-1-.91-1zM46.827 33.448a1.017 1.017 0 0 0-1.41-.275l-2.968 1.981c-.465.31-.59.938-.276 1.4a1.022 1.022 0 0 0 1.41.275l2.968-1.981c.465-.311.589-.938.276-1.4zM40.62 38.214c-.717-.564-3.918-3.841-5.898-5.905a.999.999 0 1 0-1.444 1.384c.514.536 5.047 5.261 6.101 6.093a.996.996 0 0 0 .618.214 1 1 0 0 0 .622-1.786zM37.626 40.22c-1.198-.958-4.208-4.157-4.889-4.897a1.002 1.002 0 0 0-1.474 1.355c.036.038 3.629 3.916 5.112 5.104a1.005 1.005 0 0 0 1.406-.156 1.002 1.002 0 0 0-.155-1.406zM33.645 42.234c-1.426-1.201-4.344-4.306-4.914-4.916a1 1 0 1 0-1.462 1.365c.82.878 3.612 3.837 5.086 5.081a.997.997 0 0 0 1.41-.12 1 1 0 0 0-.12-1.41z"/>
        <path d="M18.714 18.16C17.143 16.617 10.86 16.117 8.972 16a.892.892 0 0 0-.684.257.966.966 0 0 0-.288.691v17.1c0 .525.41.951.917.951h5.5a.92.92 0 0 0 .87-.656c.135-.425 3.293-10.473 3.71-15.413a.964.964 0 0 0-.283-.771zM13.748 33.1H9.833V17.968c2.947.241 6.126.766 7.28 1.347-.485 4.161-2.683 11.554-3.365 13.785zM52.069 18c-7.31 0-11.365 1.91-11.534 1.99a.94.94 0 0 0-.497.59.975.975 0 0 0 .102.772c1.15 1.89 4.753 12.39 5.446 14.95a.934.934 0 0 0 .897.698h5.586a.941.941 0 0 0 .931-.95v-17.1a.94.94 0 0 0-.931-.95zm-.93 17.1h-3.96c-.882-2.934-3.488-10.583-4.943-13.745 1.421-.492 4.473-1.337 8.902-1.444V35.1z"/>
    </g>
</svg>
