<svg xmlns="http://www.w3.org/2000/svg" width="60" height="60" viewBox="0 0 60 60">
    <path fill="#9AA8B3" fill-rule="nonzero" d="M46.95 36.474c.737-.94 1.091-1.95 1.046-2.988-.045-1.145-.557-2.04-.979-2.59.49-1.22.678-3.14-.956-4.63-1.197-1.092-3.23-1.58-6.046-1.445-1.98.09-3.637.459-3.704.474h-.008c-.376.068-.775.15-1.182.24-.03-.481.053-1.678.941-4.373 1.054-3.207.994-5.661-.196-7.303C34.616 12.136 32.621 12 32.034 12c-.565 0-1.084.233-1.453.662-.836.972-.738 2.763-.633 3.591-.993 2.665-3.78 9.2-6.136 11.014-.045.03-.083.068-.12.106a8.087 8.087 0 0 0-1.476 2.213 3.107 3.107 0 0 0-1.49-.376h-4.594A3.134 3.134 0 0 0 13 32.34v12.234a3.134 3.134 0 0 0 3.132 3.131h4.593c.67 0 1.295-.21 1.807-.572l1.77.211c.27.038 5.09.647 10.036.55.896.067 1.74.105 2.522.105 1.348 0 2.523-.105 3.501-.316 2.304-.49 3.878-1.468 4.676-2.906.61-1.1.61-2.19.512-2.883 1.498-1.355 1.762-2.854 1.71-3.908a5.085 5.085 0 0 0-.31-1.513zm-30.818 9.2a1.1 1.1 0 0 1-1.1-1.1v-12.24c0-.61.498-1.1 1.1-1.1h4.593c.61 0 1.1.497 1.1 1.1v12.233a1.1 1.1 0 0 1-1.1 1.1h-4.593v.007zm28.89-10.08a1.012 1.012 0 0 0-.135 1.227c0 .007.308.534.346 1.257.053.986-.422 1.86-1.416 2.605a1.026 1.026 0 0 0-.346 1.159c0 .007.324 1.001-.203 1.942-.505.904-1.627 1.551-3.328 1.912-1.363.294-3.215.347-5.489.166h-.105c-4.842.105-9.736-.527-9.789-.535h-.007l-.76-.09a3.19 3.19 0 0 0 .067-.662V32.334c0-.324-.052-.64-.143-.934.136-.504.512-1.626 1.4-2.582 3.381-2.68 6.687-11.721 6.83-12.113a.953.953 0 0 0 .045-.504c-.128-.843-.083-1.875.098-2.183.399.007 1.476.12 2.123 1.016.768 1.061.738 2.958-.09 5.473-1.265 3.832-1.37 5.85-.37 6.738.498.444 1.16.466 1.642.293.46-.105.896-.195 1.31-.263l.098-.023c2.312-.504 6.453-.813 7.89.497 1.22 1.114.355 2.59.257 2.748-.279.421-.196.971.18 1.31.008.007.799.753.836 1.754.03.67-.286 1.355-.94 2.032z"/>
</svg>
