<svg xmlns="http://www.w3.org/2000/svg" width="100" height="100" viewBox="0 0 100 100">
    <g fill="none" fill-rule="evenodd">
        <path stroke="#9AA8B3" stroke-width="3" d="M18.237 38.21l9.025 3.655 6.52-10.666 8.908 3.593 5.614-6.742 13.482 3.185 4.978-12.783 12.28 6.178a63.858 63.858 0 0 1 1.769 6.215c5.561 24.09-3.672 46.79-20.623 50.703-16.951 3.914-35.201-12.442-40.763-36.531a63.77 63.77 0 0 1-1.19-6.808z"/>
        <ellipse cx="66" cy="84.5" fill="#9AA8B3" rx="19" ry="2.5"/>
        <path stroke="#9AA8B3" stroke-width="3" d="M18 37l11.008 2.854M50 26l11.823 2.78M33 30l9.97 3.095"/>
    </g>
</svg>
