<svg xmlns="http://www.w3.org/2000/svg" width="34" height="34" viewBox="0 0 34 34" xmlns:xlink="http://www.w3.org/1999/xlink">
  <defs>
    <linearGradient id="a" x1="50%" x2="50%" y1="0%" y2="100%">
      <stop stop-color="#9F78FF" offset="0%"/>
      <stop stop-color="#5522F2" offset="100%"/>
    </linearGradient>
    <circle id="c" cx="10.321" cy="10.321" r="10.319"/>
    <filter id="b" width="158.1%" height="158.1%" x="-29.1%" y="-29.1%" filterUnits="objectBoundingBox">
      <feOffset in="SourceAlpha" result="shadowOffsetOuter1"/>
      <feGaussianBlur stdDeviation="2" in="shadowOffsetOuter1" result="shadowBlurOuter1"/>
      <feColorMatrix values="0 0 0 0 0 0 0 0 0 0 0 0 0 0 0 0 0 0 0.292883832 0" in="shadowBlurOuter1"/>
    </filter>
  </defs>
  <g fill="none" fill-rule="evenodd" transform="translate(3.313 4)">
    <g transform="translate(.688)">
      <rect width="25.657" height="25.657" fill="url(#a)" rx="2.097"/>
      <path fill="#FFFFFF" d="M6.32140565,17.6682174 L6.25905912,17.6682174 C6.13436544,18.0267117 5.84341788,18.2059562 5.38620772,18.2059562 C5.13162479,18.2059562 4.94069045,18.156599 4.81339898,18.0578832 C4.68610752,17.9591673 4.6003819,17.8097969 4.55621955,17.6097675 C4.51205721,17.409738 4.48997637,17.1330781 4.48997637,16.7797793 L4.48997637,14.1690184 L5.49531414,14.1690184 L5.49531414,16.3199737 C5.49531414,16.6524901 5.50310738,16.8810918 5.51869409,17.0057855 C5.5342808,17.1304792 5.56675263,17.2097104 5.61611054,17.2434816 C5.66546846,17.2772528 5.7550907,17.2941382 5.88497995,17.2941382 C6.0148692,17.2941382 6.10708919,17.2681607 6.16164267,17.216205 C6.21619616,17.1642493 6.25126573,17.0668338 6.26685244,16.9239557 C6.28243915,16.7810775 6.29023239,16.540786 6.29023239,16.2030739 L6.29023239,14.1690184 L7.29557017,14.1690184 L7.29557017,18.1436096 L6.35257892,18.1436096 L6.32140565,17.6682174 Z M8.34449279,7.81717714 L11.2563066,7.81717714 C12.3469915,7.81717714 13.1249683,7.96977066 13.5902605,8.2749623 C14.0555526,8.58015393 14.3432289,9.05794678 14.4532981,9.70835518 C14.5633672,10.3587636 14.6184009,11.4494321 14.6184009,12.9803934 C14.6184009,14.5013484 14.5633672,15.5895154 14.4532981,16.2449269 C14.3432289,16.9003385 14.0555526,17.3806328 13.5902605,17.6858245 C13.1249683,17.9910161 12.3469915,18.1436096 11.2563066,18.1436096 L8.34449279,18.1436096 L8.34449279,7.81717714 Z M11.2412973,16.0873287 C11.6015234,16.0873287 11.8391691,16.0397996 11.9542414,15.9447399 C12.0693136,15.8496802 12.1443596,15.6120346 12.1793816,15.2317958 C12.2144036,14.8515571 12.2319143,14.1010971 12.2319143,12.9803934 C12.2319143,11.869696 12.2144036,11.1217375 12.1793816,10.7364956 C12.1443596,10.3512537 12.0668121,10.1111065 11.9467367,10.0160468 C11.8266613,9.92098716 11.5915172,9.87345803 11.2412973,9.87345803 L10.7309794,9.87345803 L10.7309794,16.0873287 L11.2412973,16.0873287 Z M17.0198968,18.1886377 C16.5195827,18.1386063 16.0843159,18.0735664 15.7140834,17.9935161 L15.7140834,16.1023381 C16.6246552,16.1723821 17.3200814,16.2074035 17.800383,16.2074035 C18.1305904,16.2074035 18.3757406,16.1948959 18.5358411,16.1698802 C18.6959417,16.1448645 18.8110122,16.0873292 18.8810562,15.9972726 C18.9511002,15.9272287 18.9961278,15.8321704 19.0161403,15.712095 C19.0361529,15.5920196 19.046159,15.4169123 19.046159,15.1867678 C19.046159,14.8565604 19.0286483,14.6214163 18.9936263,14.4813283 C18.9586043,14.3412404 18.8810568,14.2386775 18.7609814,14.1736367 C18.640906,14.1085958 18.4357803,14.0510606 18.1455981,14.0010292 L16.8397846,13.7608796 C16.3394705,13.6808293 15.9942589,13.398156 15.8041395,12.9128513 C15.6140201,12.4275466 15.5189619,11.744628 15.5189619,10.8640751 C15.5189619,9.98352219 15.6490416,9.31311128 15.909205,8.85282226 C16.1693683,8.39253324 16.519583,8.08484465 16.9598594,7.92974726 C17.4001359,7.77464987 17.9604793,7.69710234 18.6409066,7.69710234 C19.4013841,7.69710234 20.2118809,7.78715754 21.0724212,7.96727063 L21.0724212,9.85844868 C20.5621008,9.7884047 19.9517267,9.75338323 19.2412806,9.75338323 C18.9010669,9.75338323 18.6509136,9.76338936 18.4908131,9.78340193 C18.3307126,9.8034145 18.210639,9.84844209 18.1305887,9.91848608 C18.0505384,9.97852377 17.9955047,10.073582 17.9654859,10.2036637 C17.935467,10.3337454 17.9204578,10.5238619 17.9204578,10.774019 C17.9204578,11.0441886 17.9329655,11.2393082 17.9579812,11.3593836 C17.9829969,11.479459 18.0380306,11.5670127 18.123084,11.6220473 C18.2081374,11.6770818 18.3507248,11.7246109 18.5508505,11.7646361 L19.7816172,11.9897763 C20.1218308,12.0598203 20.4095071,12.1673862 20.6446548,12.3124773 C20.8798024,12.4575684 21.0674174,12.7152264 21.2075054,13.0854588 C21.3676059,13.5057227 21.447655,14.0910815 21.447655,14.8415527 C21.447655,15.8321748 21.3250798,16.5751301 21.0799259,17.0704411 C20.834772,17.5657522 20.5070711,17.8884499 20.0968135,18.0385442 C19.6865559,18.1886384 19.1462247,18.2636844 18.4758037,18.2636844 C18.0055084,18.2636844 17.520211,18.2386691 17.0198968,18.1886377 Z" opacity=".816"/>
    </g>
    <g transform="translate(9.707 9.01)">
      <use fill="black" filter="url(#b)" xlink:href="#c"/>
      <use fill="#FFFFFF" xlink:href="#c"/>
      <text fill="#0062B2" font-family="Khula-Bold, Khula" font-size="7" font-weight="bold">
        <tspan x="2.98" y="11.585">Add </tspan> <tspan x="4.619" y="18.585">On</tspan>
      </text>
    </g>
  </g>
</svg>
