<svg xmlns="http://www.w3.org/2000/svg" width="34" height="34" viewBox="0 0 34 34" xmlns:xlink="http://www.w3.org/1999/xlink">
  <defs>
    <linearGradient id="a" x1="50%" x2="50%" y1="0%" y2="100%">
      <stop stop-color="#47C7FA" offset="0%"/>
      <stop stop-color="#2295F2" offset="100%"/>
    </linearGradient>
    <circle id="c" cx="10.321" cy="10.321" r="10.319"/>
    <filter id="b" width="158.1%" height="158.1%" x="-29.1%" y="-29.1%" filterUnits="objectBoundingBox">
      <feOffset in="SourceAlpha" result="shadowOffsetOuter1"/>
      <feGaussianBlur stdDeviation="2" in="shadowOffsetOuter1" result="shadowBlurOuter1"/>
      <feColorMatrix values="0 0 0 0 0 0 0 0 0 0 0 0 0 0 0 0 0 0 0.292883832 0" in="shadowBlurOuter1"/>
    </filter>
  </defs>
  <g fill="none" fill-rule="evenodd" transform="translate(3.313 4)">
    <g transform="translate(.688)">
      <rect width="25.657" height="25.657" fill="url(#a)" rx="2.097"/>
      <path fill="#FFFFFF" d="M4.44388996,17.5247626 L4.39713007,17.5247626 C4.32958766,17.7221943 4.22048232,17.8650703 4.06981079,17.953395 C3.91913926,18.0417197 3.72690605,18.0858814 3.4931054,18.0858814 C3.2333269,18.0858814 3.03589819,18.0352253 2.90081337,17.9339117 C2.76572855,17.8325981 2.67610631,17.6793311 2.63194397,17.4741061 C2.58778162,17.268881 2.56570078,16.9870256 2.56570078,16.6285313 L2.56570078,14.0489436 L3.40737892,14.0489436 L3.40737892,16.2388654 C3.40737892,16.5921642 3.41647103,16.8376512 3.43465553,16.9753338 C3.45284002,17.1130164 3.49310509,17.2013398 3.55545193,17.2403066 C3.61779877,17.2792733 3.7269041,17.2987564 3.8827712,17.2987564 C4.04902945,17.2987564 4.16852576,17.2649857 4.24126375,17.1974433 C4.31400173,17.1299009 4.36076116,17.0181978 4.38154344,16.8623307 C4.40232572,16.7064636 4.4127167,16.4596778 4.4127167,16.1219657 L4.4127167,14.0489436 L5.25439484,14.0489436 L5.25439484,18.0235348 L4.47506323,18.0235348 L4.44388996,17.5247626 Z M13.3972556,18.0235348 L13.3972556,10.7139816 L13.2771808,10.7139816 L12.0614235,18.0235348 L9.93009587,18.0235348 L8.72934791,10.7139816 L8.60927311,10.7139816 L8.60927311,18.0235348 L6.34286133,18.0235348 L6.34286133,7.69710234 L9.94510522,7.69710234 L10.9957597,14.3912722 L11.1158345,14.3912722 L12.166489,7.69710234 L15.6936861,7.69710234 L15.6936861,18.0235348 L13.3972556,18.0235348 Z M17.0745463,7.69710234 L20.6317621,7.69710234 C21.3822333,7.69710234 21.9500814,7.82718207 22.3353233,8.08734543 C22.7205652,8.34750879 22.9807246,8.72774184 23.1158095,9.228056 C23.2508943,9.72837015 23.3184357,10.4087872 23.3184357,11.2693275 C23.3184357,12.0798365 23.2558974,12.7352382 23.1308188,13.2355523 C23.0057403,13.7358665 22.7505839,14.1286072 22.365342,14.4137863 C21.9801001,14.6989653 21.4022459,14.8415527 20.6317621,14.8415527 L19.4760422,14.8415527 L19.4760422,18.0235348 L17.0745463,18.0235348 L17.0745463,7.69710234 Z M20.0163788,12.8002812 C20.306561,12.8002812 20.5066836,12.7702628 20.6167528,12.7102251 C20.7268219,12.6501874 20.8018679,12.5201077 20.841893,12.319982 C20.8819181,12.1198563 20.9019304,11.7696417 20.9019304,11.2693275 C20.9019304,10.7690134 20.8844197,10.4187987 20.8493977,10.2186731 C20.8143757,10.0185474 20.7393297,9.88846768 20.6242574,9.82842998 C20.5091852,9.76839228 20.3115641,9.73837388 20.0313881,9.73837388 L19.4760422,9.73837388 L19.4760422,12.8002812 L20.0163788,12.8002812 Z" opacity=".816"/>
    </g>
    <g transform="translate(9.707 9.01)">
      <use fill="black" filter="url(#b)" xlink:href="#c"/>
      <use fill="#FFFFFF" xlink:href="#c"/>
      <text fill="#0062B2" font-family="Khula-Bold, Khula" font-size="7" font-weight="bold">
        <tspan x="2.98" y="11.585">Add </tspan> <tspan x="4.619" y="18.585">On</tspan>
      </text>
    </g>
  </g>
</svg>
