<svg xmlns="http://www.w3.org/2000/svg" width="34" height="31" viewBox="0 0 34 31">
  <g fill="none" fill-rule="evenodd">
    <path fill="#fff" fill-rule="nonzero" d="M33.5916016,11.374278 L27.8848773,11.374278 L21.6909123,0.533170632 L18.7941658,2.18845438 L24.042016,11.374278 L9.7685309,11.374278 L15.0163811,2.19012301 L12.1196345,0.534839265 L5.92566953,11.374278 L0.218945313,11.374278 L0.218945313,14.7115436 L2.21796742,14.7115436 L5.26489094,28.4226995 C5.43342285,29.1869333 6.11088777,29.729239 6.89347656,29.729239 L26.9170703,29.729239 C27.6996591,29.729239 28.377124,29.1852647 28.5456559,28.4226995 L31.5925795,14.7115436 L33.5916016,14.7115436 L33.5916016,11.374278 Z M25.5788268,26.3919733 L8.23172008,26.3919733 L5.63532742,14.7115436 L28.1735508,14.7115436 L25.5788268,26.3919733 Z"/>
    <rect width="3.337" height="8.343" x="15.237" y="16.38" fill="#fff" fill-rule="nonzero"/>
    <rect width="3.337" height="8.343" x="20.243" y="16.38" fill="#fff" fill-rule="nonzero"/>
    <rect width="3.337" height="8.343" x="10.231" y="16.38" fill="#fff" fill-rule="nonzero"/>
  </g>
</svg>
